<?xml version="1.0" standalone="no"?>
<!DOCTYPE svg PUBLIC "-//W3C//DTD SVG 20010904//EN"
 "http://www.w3.org/TR/2001/REC-SVG-20010904/DTD/svg10.dtd">
<svg version="1.0" xmlns="http://www.w3.org/2000/svg"
 width="300.000000pt" height="300.000000pt" viewBox="0 0 300.000000 300.000000"
 preserveAspectRatio="xMidYMid meet">
<metadata>
Created by potrace 1.10, written by Peter Selinger 2001-2011
</metadata>
<g transform="translate(0.000000,300.000000) scale(0.100000,-0.100000)"
fill="#000000" stroke="none">
<path d="M1457 2960 l-27 -21 0 -262 0 -262 -102 -105 c-57 -58 -171 -175
-255 -261 -140 -143 -153 -158 -153 -192 0 -26 6 -40 22 -51 48 -34 60 -26
271 190 212 216 227 234 204 234 -8 0 -104 -90 -213 -200 -165 -166 -203 -200
-224 -198 -14 2 -26 10 -28 20 -5 25 20 52 293 329 113 114 206 217 209 230 3
13 7 133 8 266 3 254 6 271 47 258 21 -6 21 -11 21 -263 0 -234 2 -260 19
-285 10 -16 125 -136 256 -267 192 -193 236 -243 233 -262 -2 -15 -11 -24 -26
-26 -19 -3 -59 32 -206 181 -180 181 -230 226 -243 213 -10 -9 409 -426 435
-433 32 -8 76 26 80 61 3 23 -32 62 -257 292 l-261 265 0 262 c0 195 -3 267
-12 280 -22 27 -61 31 -91 7z"/>
<path d="M1779 2916 c-13 -6 -30 -23 -38 -38 -14 -25 -14 -29 5 -55 16 -21 40
-33 95 -49 317 -92 563 -268 761 -546 259 -361 310 -852 132 -1263 -214 -495
-707 -821 -1234 -817 -277 1 -526 80 -766 240 -265 178 -447 439 -541 779 -26
93 -28 109 -27 308 0 194 2 217 27 307 72 270 207 495 405 678 172 159 368
267 579 320 77 19 104 73 61 119 -18 20 -28 23 -67 18 -99 -12 -336 -109 -461
-190 -239 -153 -427 -370 -550 -632 -60 -128 -95 -242 -121 -397 -18 -103 -20
-148 -16 -273 7 -166 22 -250 72 -402 170 -511 608 -893 1135 -990 117 -21
400 -23 510 -4 589 103 1051 529 1196 1101 94 373 28 787 -179 1120 -207 333
-500 548 -903 663 -40 12 -56 13 -75 3z m221 -78 c127 -48 287 -137 370 -205
8 -7 32 -26 53 -42 82 -64 177 -161 177 -181 0 -26 -43 -54 -70 -45 -11 3 -20
10 -20 15 0 30 -183 190 -300 262 -63 39 -145 80 -235 119 -11 4 -59 20 -107
34 -95 28 -115 49 -83 85 16 18 19 18 88 -1 40 -11 97 -29 127 -41z m-786 33
c17 -18 17 -20 -3 -40 -11 -11 -39 -25 -63 -31 -128 -34 -266 -95 -378 -167
-80 -52 -143 -105 -237 -200 -39 -40 -78 -73 -86 -73 -21 0 -49 36 -45 57 7
40 317 303 357 303 6 0 11 3 11 8 0 23 338 159 401 161 14 1 34 -8 43 -18z
m-794 -532 c0 -5 -26 -49 -59 -98 -99 -151 -181 -343 -210 -491 -6 -30 -13
-68 -17 -85 -3 -16 -8 -91 -10 -165 -8 -331 110 -652 339 -921 143 -167 370
-316 600 -393 427 -142 839 -82 1227 178 94 63 270 239 335 334 198 290 279
611 240 951 -7 61 -53 240 -81 316 -26 71 -88 186 -142 267 -75 111 -75 110
-49 130 26 20 34 15 87 -57 122 -168 218 -409 250 -633 17 -113 8 -395 -14
-482 -84 -321 -220 -561 -432 -759 -220 -206 -504 -336 -824 -377 -114 -15
-252 -15 -340 0 -14 2 -45 7 -70 10 -54 8 -240 61 -290 82 -255 111 -421 236
-598 448 -117 140 -228 379 -280 601 -47 205 -32 481 39 712 40 129 171 378
235 446 25 27 27 27 45 11 10 -9 19 -21 19 -25z"/>
<path d="M1437 2199 c-4 -13 -7 -101 -7 -196 0 -164 1 -173 22 -193 28 -25 62
-26 88 0 19 19 20 33 20 211 0 148 -3 190 -12 187 -10 -4 -14 -54 -18 -189 -5
-182 -5 -184 -28 -187 -33 -5 -39 22 -41 201 -1 156 -11 217 -24 166z"/>
<path d="M372 1748 c-24 -30 -18 -76 13 -90 50 -23 102 51 63 90 -16 16 -63
15 -76 0z"/>
<path d="M2152 1748 c-7 -7 -12 -27 -12 -45 0 -27 5 -35 26 -44 37 -13 74 11
74 49 0 35 -16 52 -50 52 -14 0 -31 -5 -38 -12z"/>
<path d="M1445 1611 c-88 -22 -155 -109 -155 -201 0 -47 46 -127 89 -156 48
-32 122 -42 175 -24 48 16 113 91 124 143 28 140 -101 271 -233 238z m111 -51
c49 -24 69 -51 86 -113 10 -40 9 -49 -13 -93 -32 -64 -77 -94 -142 -94 -60 0
-110 28 -134 73 -20 39 -25 123 -10 151 50 89 128 117 213 76z"/>
<path d="M1402 1513 c-38 -36 -42 -44 -42 -89 0 -141 160 -191 238 -74 54 80
-4 188 -105 197 -47 5 -52 3 -91 -34z m128 -8 c30 -16 60 -61 60 -90 0 -27
-31 -72 -57 -84 -37 -17 -78 -13 -106 9 -51 40 -44 135 12 165 34 18 55 18 91
0z"/>
<path d="M2405 1611 c-52 -13 -75 -30 -75 -55 0 -40 24 -51 80 -37 41 11 53
10 78 -3 46 -23 60 -72 16 -56 -132 51 -263 -74 -194 -185 41 -66 145 -79 198
-25 30 29 49 40 37 20 -10 -17 15 -50 38 -50 42 0 47 16 47 155 0 123 -1 132
-25 168 -14 20 -38 43 -53 51 -35 18 -109 27 -147 17z m142 -62 c43 -41 51
-67 49 -171 -1 -53 -5 -100 -9 -104 -4 -4 -17 2 -29 13 -18 19 -19 25 -9 54
10 29 9 35 -11 56 l-21 23 21 23 c29 31 28 39 -12 81 -28 31 -40 36 -77 36
-30 0 -39 3 -30 9 26 17 101 5 128 -20z m-166 -155 c-29 -37 -26 -70 8 -105
16 -16 26 -31 23 -33 -12 -6 -46 11 -66 33 -26 28 -16 88 20 119 34 29 43 21
15 -14z m118 -10 c38 -8 38 -14 5 -53 -39 -47 -114 -40 -114 10 0 41 40 56
109 43z"/>
<path d="M372 1598 c-15 -15 -17 -330 -2 -359 13 -23 53 -25 74 -3 13 13 16
43 16 175 0 92 -4 169 -10 180 -12 22 -59 26 -78 7z m48 -178 c0 -87 -4 -140
-10 -140 -6 0 -10 53 -10 140 0 87 4 140 10 140 6 0 10 -53 10 -140z"/>
<path d="M527 1604 c-4 -4 -7 -87 -7 -184 0 -184 4 -200 44 -200 43 0 47 13
53 136 6 106 9 121 29 141 28 28 54 29 85 4 22 -18 24 -27 27 -138 2 -65 8
-124 14 -130 13 -16 50 -17 66 -1 8 8 12 54 12 140 0 146 -15 195 -70 223 -45
23 -116 20 -144 -8 -23 -23 -23 -23 -32 -3 -9 21 -62 34 -77 20z m235 -45 c15
-11 33 -30 40 -42 12 -22 21 -214 11 -230 -13 -21 -23 23 -23 101 0 117 -30
161 -108 162 -24 1 -25 2 -11 13 26 20 60 18 91 -4z m-165 -4 c12 -9 29 -12
40 -8 11 5 5 -9 -19 -37 l-38 -44 0 -93 c0 -84 -9 -116 -23 -79 -7 17 -8 257
-1 268 7 12 17 10 41 -7z"/>
<path d="M922 1598 c-17 -17 -17 -349 0 -366 19 -19 66 -15 78 7 5 11 10 66
10 123 0 91 3 107 20 126 32 34 67 38 96 11 23 -21 24 -28 24 -139 0 -123 6
-140 46 -140 42 0 54 34 54 155 -1 170 -40 235 -145 235 -42 0 -56 -5 -75 -25
l-23 -25 -11 23 c-13 25 -55 34 -74 15z m229 -34 c45 -23 59 -67 59 -184 0
-55 -4 -100 -9 -100 -4 0 -11 44 -14 99 -5 107 -18 139 -63 159 -14 7 -37 12
-52 12 l-27 1 25 14 c32 18 44 18 81 -1z m-156 -20 l24 -16 -21 -29 c-18 -23
-23 -46 -25 -117 -5 -98 -10 -123 -22 -104 -9 15 -15 258 -6 272 9 14 22 13
50 -6z"/>
<path d="M1714 1603 c-20 -15 -23 -42 -9 -76 26 -62 133 -278 145 -293 17 -19
64 -18 83 4 24 27 149 304 149 331 1 29 -18 42 -56 39 -27 -3 -33 -11 -67 -88
-21 -47 -46 -103 -54 -124 l-16 -40 -34 82 c-52 126 -76 167 -105 170 -14 1
-30 -1 -36 -5z m66 -75 c0 -20 71 -156 90 -173 19 -17 20 -17 47 12 16 17 41
61 56 98 16 38 35 77 42 88 13 19 15 19 21 3 4 -11 -6 -44 -26 -84 -17 -37
-39 -83 -49 -102 -29 -63 -61 -110 -74 -110 -15 0 -147 261 -147 292 0 20 1
21 20 3 11 -10 20 -22 20 -27z"/>
<path d="M2150 1591 c-15 -29 -13 -344 2 -359 18 -18 53 -15 71 6 14 16 17 44
17 176 0 89 -4 166 -10 177 -7 12 -21 19 -40 19 -19 0 -33 -7 -40 -19z m52
-118 c2 -108 -2 -186 -12 -197 -14 -14 -22 72 -16 174 5 111 4 100 16 100 6 0
11 -34 12 -77z"/>
<path d="M1005 1066 c-5 -2 -22 -7 -37 -10 -74 -16 -118 -103 -64 -127 20 -9
31 -7 68 15 60 35 124 32 150 -8 25 -36 -1 -69 -59 -75 -41 -5 -49 -10 -57
-33 -14 -39 14 -68 66 -68 86 0 107 -87 29 -120 -42 -17 -94 -5 -135 30 -52
46 -96 36 -96 -21 0 -53 108 -119 192 -119 82 0 170 65 183 133 10 51 -1 101
-29 134 -24 28 -24 29 -5 52 43 53 13 152 -58 194 -30 17 -125 32 -148 23z
m120 -50 c23 -10 41 -28 55 -56 21 -41 21 -43 3 -92 -17 -49 -17 -50 5 -88 39
-68 27 -139 -31 -181 -32 -23 -50 -29 -91 -29 -59 0 -129 29 -146 59 -15 30 9
28 56 -4 64 -43 154 -31 187 25 35 59 8 119 -67 144 l-38 13 43 24 c70 39 78
107 18 151 -32 24 -105 26 -147 4 -37 -19 -55 -20 -50 -4 14 41 136 62 203 34z"/>
<path d="M1510 1061 c-118 -36 -190 -137 -198 -278 -4 -75 -2 -88 23 -138 33
-69 85 -106 154 -113 116 -11 210 69 211 178 0 80 -68 161 -148 176 -41 8
-113 -13 -120 -34 -3 -11 9 -12 61 -7 57 6 71 4 100 -14 123 -76 65 -261 -81
-261 -60 0 -103 23 -134 71 -95 146 17 389 179 389 55 0 63 -16 12 -24 -23 -4
-53 -13 -68 -20 -36 -19 -88 -72 -94 -96 -9 -34 10 -31 37 5 34 44 93 75 145
75 64 0 90 41 51 80 -21 21 -80 26 -130 11z"/>
<path d="M1900 1054 c-84 -36 -130 -110 -137 -224 -8 -109 9 -168 63 -229 38
-42 54 -52 100 -62 105 -24 184 14 231 109 24 50 28 69 28 147 0 110 -20 169
-75 219 -60 54 -141 70 -210 40z m132 -34 c20 -6 50 -26 67 -45 72 -83 72
-267 -1 -356 -22 -27 -75 -49 -118 -49 -112 0 -183 85 -183 220 1 179 93 269
235 230z"/>
<path d="M1900 974 c-50 -43 -63 -79 -62 -171 0 -97 20 -146 71 -180 61 -41
139 -20 181 49 28 46 29 197 1 248 -41 78 -131 104 -191 54z m119 -19 c38 -19
61 -79 61 -161 0 -78 -21 -129 -61 -149 -35 -19 -53 -19 -88 0 -41 21 -61 71
-61 153 0 88 14 129 54 153 37 23 58 24 95 4z"/>
<path d="M1445 798 c-59 -46 -65 -117 -13 -168 60 -61 164 -33 189 50 14 47 0
90 -39 120 -34 28 -101 27 -137 -2z m126 -37 c16 -16 29 -39 29 -51 0 -32 -53
-80 -88 -80 -74 0 -109 84 -57 135 34 35 78 33 116 -4z"/>
</g>
</svg>
