<?xml version="1.0" encoding="UTF-8" standalone="no"?>
<!DOCTYPE svg PUBLIC "-//W3C//DTD SVG 1.1//EN" "http://www.w3.org/Graphics/SVG/1.1/DTD/svg11.dtd">
<svg xmlns="http://www.w3.org/2000/svg" version="1.1" viewBox="0.00 0.00 510.00 508.00">
<g stroke-width="2.00" fill="none" stroke-linecap="butt">
<path stroke="#808080" vector-effect="non-scaling-stroke" d="
  M 510.00 253.12
  Q 509.70 253.00 509.55 252.83"
/>
<path stroke="#192a33" vector-effect="non-scaling-stroke" d="
  M 509.55 252.83
  Q 510.46 250.54 509.12 249.46"
/>
<path stroke="#808080" vector-effect="non-scaling-stroke" d="
  M 509.12 249.46
  Q 508.93 241.75 507.95 234.03
  Q 507.03 226.72 506.37 220.93
  Q 505.38 212.22 503.14 204.25
  C 502.83 203.13 502.10 202.04 502.01 200.95
  Q 501.91 199.76 501.58 198.56
  Q 500.94 196.27 500.45 194.05
  Q 499.31 188.91 495.86 180.36
  C 494.49 176.98 493.90 173.21 492.32 169.81
  C 490.61 166.15 489.54 162.33 487.79 158.53
  C 485.69 154.00 482.92 149.44 482.15 144.32
  Q 482.08 143.90 481.67 143.80
  Q 481.53 143.76 481.40 143.71
  Q 480.98 143.54 480.69 143.19
  C 478.38 140.34 477.52 137.18 475.46 134.24
  C 473.53 131.47 472.27 128.29 470.41 125.33
  Q 462.02 111.94 458.77 107.23
  Q 439.33 78.99 413.87 57.70
  Q 359.62 12.35 289.52 3.44
  Q 279.97 2.22 269.60 2.00
  Q 255.23 1.70 244.00 2.54
  Q 212.41 4.92 181.79 16.07
  Q 168.85 20.78 152.43 28.56
  C 149.02 30.18 145.38 31.16 142.05 32.98
  Q 137.68 35.37 133.06 37.79
  Q 132.79 37.93 130.56 39.40
  Q 129.40 40.15 128.20 40.83
  Q 122.75 43.91 111.64 51.17
  Q 109.05 52.87 106.53 54.92
  C 102.39 58.29 97.92 61.37 93.99 64.78
  Q 85.75 71.92 79.59 77.93
  Q 70.45 86.84 63.72 94.98
  Q 60.73 98.59 57.71 102.53
  Q 57.14 103.27 56.94 104.07
  Q 56.81 104.59 56.38 104.91
  Q 54.44 106.41 53.09 108.33
  Q 49.29 113.78 45.54 119.51
  Q 44.56 121.01 43.61 122.58
  C 42.29 124.76 40.73 126.60 39.77 128.94
  C 39.18 130.39 37.84 131.70 37.00 133.18
  Q 25.96 152.57 17.52 174.52
  C 16.53 177.09 16.29 179.65 15.29 182.11
  Q 12.36 189.35 10.98 196.40
  C 10.78 197.48 10.15 197.98 9.93 198.97
  Q 8.54 205.20 7.19 211.74
  Q 5.92 217.87 5.18 223.78
  Q 4.39 230.10 3.44 235.84
  C 3.32 236.56 2.99 236.72 2.94 237.59
  Q 2.12 251.40 2.24 268.70
  Q 2.27 273.71 2.71 278.83
  Q 3.13 283.79 3.88 288.97
  Q 4.97 296.55 6.13 304.12
  Q 6.67 307.67 8.61 315.21
  Q 10.08 320.93 10.71 326.71"
/>
<path stroke="#99a9b3" vector-effect="non-scaling-stroke" d="
  M 509.12 249.46
  Q 509.05 251.45 509.55 252.83"
/>
<path stroke="#99a9b3" vector-effect="non-scaling-stroke" d="
  M 288.00 508.00
  Q 303.36 506.76 318.26 502.72
  Q 325.55 500.75 332.84 498.59
  Q 340.98 496.17 362.12 487.14
  Q 369.27 484.09 379.19 478.17
  C 381.92 476.54 384.71 475.25 387.43 473.63
  Q 404.25 463.63 420.15 449.99
  Q 432.86 439.09 442.50 428.50
  Q 468.33 400.16 485.64 363.26
  Q 489.48 355.08 493.43 344.21
  Q 497.05 334.25 499.66 324.90
  Q 502.72 313.92 504.46 304.53
  Q 509.03 279.87 508.55 256.50
  Q 508.06 232.54 503.05 207.47
  C 502.40 204.21 501.12 201.02 500.44 197.77
  Q 499.66 194.01 498.41 190.14
  C 493.26 174.33 487.42 157.93 479.43 143.16
  Q 476.03 136.87 471.85 129.82
  Q 460.34 110.41 445.37 93.61"
/>
<path stroke="#8ec8f8" vector-effect="non-scaling-stroke" d="
  M 445.37 93.61
  Q 442.80 90.31 441.18 88.58
  Q 412.13 57.54 375.04 37.32
  Q 366.40 32.60 357.13 28.61
  Q 334.54 18.90 311.03 13.12
  Q 305.40 11.74 300.38 15.61
  C 296.14 18.88 294.36 25.48 297.39 30.20
  C 300.78 35.47 305.48 36.27 311.15 37.75
  Q 335.41 44.10 358.95 56.03
  Q 378.59 65.99 399.78 83.47
  Q 414.42 95.54 424.38 106.53"
/>
<path stroke="#99a9b3" vector-effect="non-scaling-stroke" d="
  M 424.38 106.53
  Q 425.87 108.67 429.20 112.29
  Q 435.45 119.07 446.96 136.01
  Q 462.47 158.86 471.34 184.03
  Q 479.90 208.35 482.90 230.52
  Q 487.96 267.95 479.67 307.25
  Q 477.57 317.19 474.39 326.66
  Q 465.15 354.12 452.45 375.00
  Q 419.48 429.17 362.21 460.30
  Q 353.31 465.13 344.18 468.94
  Q 311.20 482.70 277.06 486.20
  Q 253.42 488.62 228.18 485.06
  Q 221.34 484.10 214.15 482.80
  Q 207.08 481.53 200.57 479.83
  Q 149.23 466.41 107.94 432.81
  Q 86.86 415.65 70.88 393.24
  Q 56.02 372.38 46.89 352.13
  Q 38.40 333.31 32.99 312.34
  C 23.27 274.71 24.98 234.42 36.10 197.16
  C 45.93 164.19 62.98 133.88 86.15 108.04"
/>
<path stroke="#8ec8f8" vector-effect="non-scaling-stroke" d="
  M 86.15 108.04
  Q 102.35 90.81 117.92 78.43
  Q 135.90 64.14 153.87 55.33
  C 168.64 48.08 184.62 41.38 200.33 37.99
  C 205.83 36.80 210.34 35.33 213.35 30.44
  C 217.84 23.15 211.98 13.53 203.78 13.16
  Q 200.09 12.99 196.21 14.06
  Q 171.15 20.93 148.29 31.41
  Q 139.04 35.65 130.28 40.81
  Q 112.49 51.28 98.86 62.25
  Q 88.32 70.74 76.63 82.62
  Q 71.00 88.35 67.44 92.69"
/>
<path stroke="#99a9b3" vector-effect="non-scaling-stroke" d="
  M 67.44 92.69
  Q 54.85 106.21 46.81 119.02
  Q 37.79 133.39 35.22 138.00
  Q 29.31 148.59 23.05 163.04
  Q 18.99 172.41 16.03 181.75
  Q 12.55 192.73 10.38 201.64
  Q 5.34 222.40 3.71 245.60
  Q 2.22 266.88 4.54 286.93
  Q 6.77 306.09 12.15 325.88
  Q 13.07 329.27 14.15 332.47
  C 16.15 338.38 17.87 344.45 20.12 350.07
  Q 33.09 382.44 53.59 409.76
  C 54.83 411.41 56.21 412.81 57.33 414.55
  Q 58.54 416.43 60.00 418.23
  Q 74.82 436.51 92.95 451.54
  C 94.68 452.96 96.49 454.11 98.12 455.59
  Q 100.28 457.53 102.52 459.17
  Q 127.23 477.20 152.21 488.39
  Q 177.28 499.62 204.97 505.52
  Q 207.37 506.03 209.79 506.40
  L 220.40 508.00"
/>
<path stroke="#808080" vector-effect="non-scaling-stroke" d="
  M 16.28 342.97
  Q 15.93 338.27 13.23 334.40"
/>
<path stroke="#a1e0ac" vector-effect="non-scaling-stroke" d="
  M 267.40 134.89
  C 269.49 137.19 271.51 139.57 273.76 141.76
  Q 301.11 168.42 330.62 198.77
  C 332.87 201.08 335.25 204.03 338.21 205.24
  C 345.18 208.10 353.30 204.81 354.70 196.91
  Q 355.83 190.53 350.67 185.32
  Q 321.56 155.94 295.30 129.82
  C 286.44 121.00 277.93 112.05 269.25 103.04
  Q 266.69 100.39 266.71 96.50
  Q 266.86 73.41 266.91 17.75
  Q 266.92 13.54 266.01 11.15
  C 261.54 -0.61 243.76 2.74 243.75 15.40
  Q 243.75 51.01 243.86 90.96
  C 243.87 94.59 244.08 99.70 241.62 102.22
  Q 208.64 136.01 177.75 167.35
  Q 169.44 175.78 161.94 183.74
  C 157.02 188.97 153.84 194.54 158.30 201.36
  C 162.45 207.71 171.66 207.90 176.85 202.58
  C 191.04 188.07 204.87 173.35 219.28 159.15
  Q 231.80 146.80 243.92 134.18
  Q 244.24 133.85 244.23 134.31
  Q 243.62 162.32 243.77 190.40
  C 243.80 196.50 243.50 200.24 247.87 203.71
  Q 252.67 207.53 258.79 205.90
  C 265.02 204.24 266.89 199.06 266.89 193.03
  Q 266.86 164.85 266.75 135.15
  Q 266.74 134.17 267.40 134.89"
/>
<path stroke="#99a9b3" vector-effect="non-scaling-stroke" d="
  M 68.5550 230.1320
  A 9.67 9.28 96.8 0 0 78.9147 221.6288
  A 9.67 9.28 96.8 0 0 70.8450 210.9280
  A 9.67 9.28 96.8 0 0 60.4853 219.4312
  A 9.67 9.28 96.8 0 0 68.5550 230.1320"
/>
<path stroke="#99a9b3" vector-effect="non-scaling-stroke" d="
  M 383.09 220.64
  A 9.40 9.40 0.0 0 0 373.69 211.24
  A 9.40 9.40 0.0 0 0 364.29 220.64
  A 9.40 9.40 0.0 0 0 373.69 230.04
  A 9.40 9.40 0.0 0 0 383.09 220.64"
/>
<path stroke="#99a9b3" vector-effect="non-scaling-stroke" d="
  M 284.08 284.89
  Q 288.86 275.62 287.60 266.20
  Q 286.79 260.18 282.37 252.48
  C 278.28 245.36 270.86 239.27 263.10 237.30
  Q 244.36 232.53 231.25 244.81
  C 223.89 251.71 219.48 262.90 220.52 273.31
  C 222.02 288.43 233.52 302.03 248.91 303.69
  Q 273.05 306.29 284.08 284.89"
/>
<path stroke="#99a9b3" vector-effect="non-scaling-stroke" d="
  M 433.48 295.61
  C 433.03 306.08 448.99 308.32 449.16 296.29
  Q 449.42 278.80 449.07 261.77
  C 448.80 247.99 438.08 238.11 424.98 236.30
  C 416.09 235.07 407.48 236.21 399.68 241.35
  C 395.38 244.18 396.58 250.68 400.52 253.00
  C 402.94 254.42 405.63 255.13 408.34 253.98
  C 418.03 249.90 428.26 251.09 431.78 262.41
  A 0.62 0.61 -0.5 0 1 431.02 263.18
  C 420.47 260.14 408.99 259.09 399.48 265.84
  Q 390.24 272.40 390.98 285.67
  Q 391.20 289.47 392.74 292.42
  Q 398.99 304.40 412.58 304.97
  C 420.43 305.29 427.47 301.87 431.94 295.11
  Q 433.62 292.56 433.48 295.61"
/>
<path stroke="#99a9b3" vector-effect="non-scaling-stroke" d="
  M 105.13 244.33
  Q 104.41 245.45 104.31 244.12
  C 103.89 238.30 99.14 235.43 93.74 236.57
  C 88.90 237.58 87.94 241.96 87.96 246.41
  Q 88.07 269.21 88.08 293.92
  C 88.08 300.06 92.52 305.67 99.17 303.80
  Q 104.61 302.26 104.87 296.70
  Q 105.47 283.77 105.17 270.71
  Q 105.06 265.71 106.04 262.77
  C 108.23 256.23 113.97 251.60 121.27 253.77
  C 127.44 255.60 129.04 261.78 128.98 267.77
  Q 128.84 282.50 129.09 296.06
  C 129.20 301.95 134.58 305.48 140.19 303.52
  C 144.44 302.03 145.81 298.37 145.82 294.16
  Q 145.85 279.20 145.99 264.46
  C 146.13 248.37 134.33 233.77 117.08 236.61
  C 112.27 237.41 107.85 240.15 105.13 244.33"
/>
<path stroke="#99a9b3" vector-effect="non-scaling-stroke" d="
  M 171.03 244.54
  C 170.54 233.90 155.21 233.13 154.99 244.94
  Q 154.58 267.31 155.05 295.39
  C 155.16 301.66 160.10 305.62 166.06 303.93
  C 171.33 302.43 172.40 298.25 172.35 292.93
  Q 172.25 282.84 172.24 271.22
  Q 172.24 263.77 173.57 261.27
  C 177.09 254.68 185.85 249.81 192.25 256.01
  Q 196.00 259.64 195.98 264.05
  Q 195.94 279.61 196.08 296.07
  C 196.12 301.70 200.57 304.93 205.85 303.89
  Q 212.98 302.48 212.95 294.10
  Q 212.89 279.39 213.05 265.14
  C 213.14 257.32 211.65 251.63 207.08 245.39
  Q 202.51 239.16 195.61 237.27
  Q 180.56 233.16 172.09 244.86
  Q 171.10 246.23 171.03 244.54"
/>
<path stroke="#99a9b3" vector-effect="non-scaling-stroke" d="
  M 322.84 278.20
  A 0.48 0.48 0.0 0 1 321.96 278.19
  Q 314.22 260.17 305.97 242.19
  Q 303.75 237.36 299.55 236.65
  Q 295.27 235.91 292.17 238.50
  Q 286.91 242.91 290.25 250.24
  Q 298.92 269.28 311.38 294.90
  Q 313.41 299.06 315.63 301.26
  C 322.45 308.04 329.62 303.47 333.08 296.29
  Q 343.93 273.70 354.76 250.09
  C 357.69 243.72 354.92 236.97 347.55 236.50
  C 342.69 236.19 339.81 239.30 337.98 243.45
  Q 330.32 260.90 322.84 278.20"
/>
<path stroke="#99a9b3" vector-effect="non-scaling-stroke" d="
  M 78.4842 245.1551
  A 8.38 8.38 0.0 0 0 70.1188 236.7605
  L 69.6388 236.7596
  A 8.38 8.38 0.0 0 0 61.2442 245.1250
  L 61.1558 295.7449
  A 8.38 8.38 0.0 0 0 69.5212 304.1395
  L 70.0012 304.1404
  A 8.38 8.38 0.0 0 0 78.3958 295.7750
  L 78.4842 245.1551"
/>
<path stroke="#99a9b3" vector-effect="non-scaling-stroke" d="
  M 382.5072 245.5710
  A 8.59 8.59 0.0 0 0 373.9472 236.9511
  L 373.4272 236.9493
  A 8.59 8.59 0.0 0 0 364.8073 245.5093
  L 364.6328 295.4890
  A 8.59 8.59 0.0 0 0 373.1928 304.1089
  L 373.7128 304.1107
  A 8.59 8.59 0.0 0 0 382.3327 295.5507
  L 382.5072 245.5710"
/>
<path stroke="#99a9b3" vector-effect="non-scaling-stroke" d="
  M 244.61 364.66
  Q 243.22 365.50 243.95 364.05
  Q 250.06 351.93 263.06 347.53
  C 266.51 346.36 270.79 346.53 274.51 346.59
  C 277.75 346.65 280.70 345.64 282.19 342.53
  C 285.37 335.90 280.63 330.18 273.68 329.52
  C 259.75 328.21 247.17 332.64 237.58 343.09
  Q 219.46 362.82 223.38 390.45
  C 225.61 406.15 237.01 419.39 253.05 421.44
  C 264.64 422.92 276.46 419.19 283.51 409.91
  Q 293.01 397.39 289.05 382.33
  Q 287.46 376.27 283.53 371.63
  C 273.56 359.85 258.11 356.53 244.61 364.66"
/>
<path stroke="#99a9b3" vector-effect="non-scaling-stroke" d="
  M 300.11 378.92
  C 300.57 396.73 307.64 413.52 325.05 419.52
  Q 334.87 422.90 345.01 420.83
  C 372.07 415.31 376.41 383.59 372.51 361.44
  Q 369.86 346.43 358.83 336.98
  Q 353.79 332.66 348.05 331.08
  C 338.61 328.48 329.78 328.50 321.07 333.15
  C 303.69 342.43 299.63 360.74 300.11 378.92"
/>
<path stroke="#99a9b3" vector-effect="non-scaling-stroke" d="
  M 203.91 371.07
  Q 214.11 361.33 209.18 347.91
  Q 205.59 338.15 196.20 333.31
  C 183.64 326.84 166.38 328.37 155.06 337.01
  Q 152.12 339.26 150.51 342.20
  C 148.23 346.34 149.30 351.28 153.55 353.66
  C 160.10 357.34 165.32 350.18 171.04 348.13
  Q 178.53 345.45 185.08 347.59
  C 190.49 349.35 194.63 354.76 191.60 360.45
  C 188.83 365.66 183.28 365.57 178.07 365.14
  Q 173.47 364.77 171.81 369.27
  C 170.14 373.78 170.93 378.82 175.51 381.28
  Q 177.36 382.28 179.67 382.08
  C 184.47 381.68 189.37 382.19 192.89 385.75
  C 195.78 388.66 196.35 392.22 195.22 396.00
  C 193.59 401.43 186.81 403.70 181.66 403.79
  Q 172.85 403.94 167.42 399.33
  C 162.98 395.55 159.62 390.18 152.78 393.07
  C 148.27 394.97 146.78 401.54 149.18 405.56
  Q 150.27 407.38 151.80 409.07
  Q 162.88 421.30 180.40 421.59
  Q 192.95 421.80 202.25 414.91
  C 215.07 405.41 217.55 387.69 207.65 375.50
  C 206.59 374.19 205.20 373.02 203.94 371.93
  Q 203.45 371.51 203.91 371.07"
/>
<path stroke="#2872ac" vector-effect="non-scaling-stroke" d="
  M 445.37 93.61
  Q 444.70 93.33 444.20 93.65
  A 0.87 0.86 69.5 0 0 443.82 94.50
  C 444.73 100.82 442.47 106.52 435.69 107.90
  Q 430.09 109.04 424.38 106.53"
/>
<path stroke="#2872ac" vector-effect="non-scaling-stroke" d="
  M 86.15 108.04
  Q 85.46 106.96 83.28 107.74
  Q 81.77 108.29 80.63 108.32
  C 78.83 108.37 76.78 108.76 75.12 108.18
  Q 71.06 106.75 68.94 103.02
  Q 67.87 101.15 67.69 97.97
  Q 67.54 95.48 67.44 92.69"
/>
<path stroke="#99a9b3" vector-effect="non-scaling-stroke" d="
  M 254.5226 287.0497
  A 16.98 16.55 88.0 0 0 270.4699 269.5024
  A 16.98 16.55 88.0 0 0 253.3374 253.1103
  A 16.98 16.55 88.0 0 0 237.3901 270.6576
  A 16.98 16.55 88.0 0 0 254.5226 287.0497"
/>
<path stroke="#99a9b3" vector-effect="non-scaling-stroke" d="
  M 420.51 275.17
  C 415.09 274.29 408.50 276.28 408.26 282.86
  C 408.03 289.36 416.11 291.83 420.94 289.67
  Q 428.87 286.13 431.88 277.57
  A 0.52 0.52 0.0 0 0 431.47 276.88
  Q 426.00 276.05 420.51 275.17"
/>
<path stroke="#99a9b3" vector-effect="non-scaling-stroke" d="
  M 272.2465 388.9138
  A 14.38 13.43 -8.1 0 0 256.1177 377.6440
  A 14.38 13.43 -8.1 0 0 243.7735 392.9662
  A 14.38 13.43 -8.1 0 0 259.9023 404.2360
  A 14.38 13.43 -8.1 0 0 272.2465 388.9138"
/>
<path stroke="#99a9b3" vector-effect="non-scaling-stroke" d="
  M 327.10 350.46
  C 319.61 356.74 319.08 365.80 319.20 374.78
  C 319.30 383.23 319.23 389.86 323.43 396.24
  C 328.37 403.75 337.77 406.02 345.48 401.33
  C 351.59 397.60 354.27 390.51 354.46 383.74
  Q 354.69 375.70 354.44 367.79
  C 354.07 356.67 346.62 345.32 334.40 347.19
  Q 330.26 347.82 327.10 350.46"
/>
</g>
<path fill="#000000" d="
  M 247.13 0.00
  L 263.00 0.00
  Q 342.68 3.34 406.09 49.38
  C 469.30 95.28 507.05 168.25 510.00 246.13
  L 510.00 253.12
  Q 509.70 253.00 509.55 252.83
  Q 510.46 250.54 509.12 249.46
  Q 508.93 241.75 507.95 234.03
  Q 507.03 226.72 506.37 220.93
  Q 505.38 212.22 503.14 204.25
  C 502.83 203.13 502.10 202.04 502.01 200.95
  Q 501.91 199.76 501.58 198.56
  Q 500.94 196.27 500.45 194.05
  Q 499.31 188.91 495.86 180.36
  C 494.49 176.98 493.90 173.21 492.32 169.81
  C 490.61 166.15 489.54 162.33 487.79 158.53
  C 485.69 154.00 482.92 149.44 482.15 144.32
  Q 482.08 143.90 481.67 143.80
  Q 481.53 143.76 481.40 143.71
  Q 480.98 143.54 480.69 143.19
  C 478.38 140.34 477.52 137.18 475.46 134.24
  C 473.53 131.47 472.27 128.29 470.41 125.33
  Q 462.02 111.94 458.77 107.23
  Q 439.33 78.99 413.87 57.70
  Q 359.62 12.35 289.52 3.44
  Q 279.97 2.22 269.60 2.00
  Q 255.23 1.70 244.00 2.54
  Q 212.41 4.92 181.79 16.07
  Q 168.85 20.78 152.43 28.56
  C 149.02 30.18 145.38 31.16 142.05 32.98
  Q 137.68 35.37 133.06 37.79
  Q 132.79 37.93 130.56 39.40
  Q 129.40 40.15 128.20 40.83
  Q 122.75 43.91 111.64 51.17
  Q 109.05 52.87 106.53 54.92
  C 102.39 58.29 97.92 61.37 93.99 64.78
  Q 85.75 71.92 79.59 77.93
  Q 70.45 86.84 63.72 94.98
  Q 60.73 98.59 57.71 102.53
  Q 57.14 103.27 56.94 104.07
  Q 56.81 104.59 56.38 104.91
  Q 54.44 106.41 53.09 108.33
  Q 49.29 113.78 45.54 119.51
  Q 44.56 121.01 43.61 122.58
  C 42.29 124.76 40.73 126.60 39.77 128.94
  C 39.18 130.39 37.84 131.70 37.00 133.18
  Q 25.96 152.57 17.52 174.52
  C 16.53 177.09 16.29 179.65 15.29 182.11
  Q 12.36 189.35 10.98 196.40
  C 10.78 197.48 10.15 197.98 9.93 198.97
  Q 8.54 205.20 7.19 211.74
  Q 5.92 217.87 5.18 223.78
  Q 4.39 230.10 3.44 235.84
  C 3.32 236.56 2.99 236.72 2.94 237.59
  Q 2.12 251.40 2.24 268.70
  Q 2.27 273.71 2.71 278.83
  Q 3.13 283.79 3.88 288.97
  Q 4.97 296.55 6.13 304.12
  Q 6.67 307.67 8.61 315.21
  Q 10.08 320.93 10.71 326.71
  Q 1.22 295.10 0.00 261.87
  L 0.00 246.14
  C 5.12 110.94 112.18 5.04 247.13 0.00
  Z"
/>
<path fill="#ffffff" d="
  M 509.12 249.46
  Q 509.05 251.45 509.55 252.83
  Q 509.70 253.00 510.00 253.12
  L 510.00 261.74
  Q 509.23 278.60 506.88 295.26
  Q 505.64 304.10 503.44 313.02
  Q 501.30 321.65 499.03 329.94
  Q 498.17 333.07 496.90 336.39
  Q 495.68 339.60 494.57 342.91
  Q 492.52 349.02 489.85 355.62
  Q 487.42 361.63 484.55 367.42
  Q 475.92 384.86 463.27 403.81
  Q 463.11 404.05 463.01 404.31
  Q 462.82 404.82 462.39 405.16
  C 460.51 406.66 460.02 408.62 458.50 410.38
  Q 455.67 413.65 453.65 416.66
  C 452.71 418.05 451.45 419.04 450.41 420.33
  Q 450.11 420.71 450.04 421.19
  C 449.95 421.87 448.92 422.25 448.40 422.85
  Q 435.69 437.62 420.62 450.46
  A 1.45 1.42 -12.6 0 0 420.17 451.15
  Q 419.93 452.03 419.04 452.21
  Q 418.47 452.32 418.03 452.70
  Q 405.69 463.04 392.39 471.40
  Q 391.78 471.78 391.29 472.29
  C 390.58 473.02 389.68 473.21 388.79 473.72
  Q 385.46 475.61 381.89 477.47
  Q 380.88 478.00 379.82 478.67
  Q 374.73 481.90 369.08 484.38
  Q 368.36 484.70 368.12 485.48
  Q 367.96 485.97 367.44 485.98
  C 365.08 486.02 363.70 487.77 361.47 488.25
  Q 360.17 488.52 359.03 489.10
  Q 354.33 491.50 350.05 493.06
  Q 345.11 494.85 340.07 496.81
  Q 334.85 498.84 329.15 500.47
  Q 319.29 503.27 310.42 505.47
  C 308.18 506.02 306.03 505.98 303.77 506.52
  Q 302.48 506.82 300.19 507.01
  Q 298.30 507.16 296.62 508.00
  L 288.00 508.00
  Q 303.36 506.76 318.26 502.72
  Q 325.55 500.75 332.84 498.59
  Q 340.98 496.17 362.12 487.14
  Q 369.27 484.09 379.19 478.17
  C 381.92 476.54 384.71 475.25 387.43 473.63
  Q 404.25 463.63 420.15 449.99
  Q 432.86 439.09 442.50 428.50
  Q 468.33 400.16 485.64 363.26
  Q 489.48 355.08 493.43 344.21
  Q 497.05 334.25 499.66 324.90
  Q 502.72 313.92 504.46 304.53
  Q 509.03 279.87 508.55 256.50
  Q 508.06 232.54 503.05 207.47
  C 502.40 204.21 501.12 201.02 500.44 197.77
  Q 499.66 194.01 498.41 190.14
  C 493.26 174.33 487.42 157.93 479.43 143.16
  Q 476.03 136.87 471.85 129.82
  Q 460.34 110.41 445.37 93.61
  Q 442.80 90.31 441.18 88.58
  Q 412.13 57.54 375.04 37.32
  Q 366.40 32.60 357.13 28.61
  Q 334.54 18.90 311.03 13.12
  Q 305.40 11.74 300.38 15.61
  C 296.14 18.88 294.36 25.48 297.39 30.20
  C 300.78 35.47 305.48 36.27 311.15 37.75
  Q 335.41 44.10 358.95 56.03
  Q 378.59 65.99 399.78 83.47
  Q 414.42 95.54 424.38 106.53
  Q 425.87 108.67 429.20 112.29
  Q 435.45 119.07 446.96 136.01
  Q 462.47 158.86 471.34 184.03
  Q 479.90 208.35 482.90 230.52
  Q 487.96 267.95 479.67 307.25
  Q 477.57 317.19 474.39 326.66
  Q 465.15 354.12 452.45 375.00
  Q 419.48 429.17 362.21 460.30
  Q 353.31 465.13 344.18 468.94
  Q 311.20 482.70 277.06 486.20
  Q 253.42 488.62 228.18 485.06
  Q 221.34 484.10 214.15 482.80
  Q 207.08 481.53 200.57 479.83
  Q 149.23 466.41 107.94 432.81
  Q 86.86 415.65 70.88 393.24
  Q 56.02 372.38 46.89 352.13
  Q 38.40 333.31 32.99 312.34
  C 23.27 274.71 24.98 234.42 36.10 197.16
  C 45.93 164.19 62.98 133.88 86.15 108.04
  Q 102.35 90.81 117.92 78.43
  Q 135.90 64.14 153.87 55.33
  C 168.64 48.08 184.62 41.38 200.33 37.99
  C 205.83 36.80 210.34 35.33 213.35 30.44
  C 217.84 23.15 211.98 13.53 203.78 13.16
  Q 200.09 12.99 196.21 14.06
  Q 171.15 20.93 148.29 31.41
  Q 139.04 35.65 130.28 40.81
  Q 112.49 51.28 98.86 62.25
  Q 88.32 70.74 76.63 82.62
  Q 71.00 88.35 67.44 92.69
  Q 54.85 106.21 46.81 119.02
  Q 37.79 133.39 35.22 138.00
  Q 29.31 148.59 23.05 163.04
  Q 18.99 172.41 16.03 181.75
  Q 12.55 192.73 10.38 201.64
  Q 5.34 222.40 3.71 245.60
  Q 2.22 266.88 4.54 286.93
  Q 6.77 306.09 12.15 325.88
  Q 13.07 329.27 14.15 332.47
  C 16.15 338.38 17.87 344.45 20.12 350.07
  Q 33.09 382.44 53.59 409.76
  C 54.83 411.41 56.21 412.81 57.33 414.55
  Q 58.54 416.43 60.00 418.23
  Q 74.82 436.51 92.95 451.54
  C 94.68 452.96 96.49 454.11 98.12 455.59
  Q 100.28 457.53 102.52 459.17
  Q 127.23 477.20 152.21 488.39
  Q 177.28 499.62 204.97 505.52
  Q 207.37 506.03 209.79 506.40
  L 220.40 508.00
  L 214.27 508.00
  Q 210.35 506.52 205.99 507.04
  Q 205.20 507.14 204.96 506.53
  Q 204.78 506.10 204.32 506.01
  Q 192.09 503.62 180.04 499.69
  Q 166.22 495.19 153.46 489.87
  Q 153.21 489.76 153.02 489.56
  Q 152.75 489.27 152.38 489.14
  C 147.61 487.44 143.67 484.97 139.23 482.76
  Q 136.73 481.51 134.28 480.31
  Q 132.94 479.66 131.69 478.70
  Q 130.47 477.76 128.98 477.13
  C 124.69 475.31 121.27 472.22 117.21 470.01
  Q 115.44 469.04 113.82 467.86
  C 110.97 465.77 107.86 464.07 105.16 461.81
  C 102.35 459.45 99.24 457.62 96.66 455.02
  C 95.43 453.77 93.90 453.22 92.58 452.08
  Q 89.43 449.36 86.50 446.74
  Q 76.05 437.41 66.75 427.27
  Q 64.90 425.25 63.28 423.11
  Q 61.41 420.65 59.42 418.89
  Q 58.30 417.91 57.78 416.59
  Q 56.99 414.60 55.63 413.19
  Q 54.23 411.73 53.01 410.03
  Q 49.97 405.80 46.81 401.42
  Q 46.60 401.13 46.31 400.95
  Q 46.00 400.77 45.69 400.94
  Q 45.00 401.32 44.99 400.53
  L 44.99 398.93
  A 1.11 1.06 26.9 0 0 44.77 398.31
  Q 43.72 397.01 42.97 395.57
  Q 42.69 395.03 42.10 394.89
  Q 41.98 394.86 41.87 394.91
  Q 41.11 395.30 41.06 394.43
  Q 40.95 392.21 39.53 390.39
  Q 38.67 389.28 38.08 388.09
  Q 37.53 386.97 36.85 385.92
  Q 34.40 382.11 32.38 377.93
  Q 32.10 377.36 31.54 377.05
  Q 30.96 376.73 30.97 376.07
  Q 30.99 375.55 30.74 375.10
  Q 22.38 359.51 16.28 342.97
  Q 15.93 338.27 13.23 334.40
  L 10.71 326.71
  Q 10.08 320.93 8.61 315.21
  Q 6.67 307.67 6.13 304.12
  Q 4.97 296.55 3.88 288.97
  Q 3.13 283.79 2.71 278.83
  Q 2.27 273.71 2.24 268.70
  Q 2.12 251.40 2.94 237.59
  C 2.99 236.72 3.32 236.56 3.44 235.84
  Q 4.39 230.10 5.18 223.78
  Q 5.92 217.87 7.19 211.74
  Q 8.54 205.20 9.93 198.97
  C 10.15 197.98 10.78 197.48 10.98 196.40
  Q 12.36 189.35 15.29 182.11
  C 16.29 179.65 16.53 177.09 17.52 174.52
  Q 25.96 152.57 37.00 133.18
  C 37.84 131.70 39.18 130.39 39.77 128.94
  C 40.73 126.60 42.29 124.76 43.61 122.58
  Q 44.56 121.01 45.54 119.51
  Q 49.29 113.78 53.09 108.33
  Q 54.44 106.41 56.38 104.91
  Q 56.81 104.59 56.94 104.07
  Q 57.14 103.27 57.71 102.53
  Q 60.73 98.59 63.72 94.98
  Q 70.45 86.84 79.59 77.93
  Q 85.75 71.92 93.99 64.78
  C 97.92 61.37 102.39 58.29 106.53 54.92
  Q 109.05 52.87 111.64 51.17
  Q 122.75 43.91 128.20 40.83
  Q 129.40 40.15 130.56 39.40
  Q 132.79 37.93 133.06 37.79
  Q 137.68 35.37 142.05 32.98
  C 145.38 31.16 149.02 30.18 152.43 28.56
  Q 168.85 20.78 181.79 16.07
  Q 212.41 4.92 244.00 2.54
  Q 255.23 1.70 269.60 2.00
  Q 279.97 2.22 289.52 3.44
  Q 359.62 12.35 413.87 57.70
  Q 439.33 78.99 458.77 107.23
  Q 462.02 111.94 470.41 125.33
  C 472.27 128.29 473.53 131.47 475.46 134.24
  C 477.52 137.18 478.38 140.34 480.69 143.19
  Q 480.98 143.54 481.40 143.71
  Q 481.53 143.76 481.67 143.80
  Q 482.08 143.90 482.15 144.32
  C 482.92 149.44 485.69 154.00 487.79 158.53
  C 489.54 162.33 490.61 166.15 492.32 169.81
  C 493.90 173.21 494.49 176.98 495.86 180.36
  Q 499.31 188.91 500.45 194.05
  Q 500.94 196.27 501.58 198.56
  Q 501.91 199.76 502.01 200.95
  C 502.10 202.04 502.83 203.13 503.14 204.25
  Q 505.38 212.22 506.37 220.93
  Q 507.03 226.72 507.95 234.03
  Q 508.93 241.75 509.12 249.46
  Z
  M 267.40 134.89
  C 269.49 137.19 271.51 139.57 273.76 141.76
  Q 301.11 168.42 330.62 198.77
  C 332.87 201.08 335.25 204.03 338.21 205.24
  C 345.18 208.10 353.30 204.81 354.70 196.91
  Q 355.83 190.53 350.67 185.32
  Q 321.56 155.94 295.30 129.82
  C 286.44 121.00 277.93 112.05 269.25 103.04
  Q 266.69 100.39 266.71 96.50
  Q 266.86 73.41 266.91 17.75
  Q 266.92 13.54 266.01 11.15
  C 261.54 -0.61 243.76 2.74 243.75 15.40
  Q 243.75 51.01 243.86 90.96
  C 243.87 94.59 244.08 99.70 241.62 102.22
  Q 208.64 136.01 177.75 167.35
  Q 169.44 175.78 161.94 183.74
  C 157.02 188.97 153.84 194.54 158.30 201.36
  C 162.45 207.71 171.66 207.90 176.85 202.58
  C 191.04 188.07 204.87 173.35 219.28 159.15
  Q 231.80 146.80 243.92 134.18
  Q 244.24 133.85 244.23 134.31
  Q 243.62 162.32 243.77 190.40
  C 243.80 196.50 243.50 200.24 247.87 203.71
  Q 252.67 207.53 258.79 205.90
  C 265.02 204.24 266.89 199.06 266.89 193.03
  Q 266.86 164.85 266.75 135.15
  Q 266.74 134.17 267.40 134.89
  Z
  M 68.5550 230.1320
  A 9.67 9.28 96.8 0 0 78.9147 221.6288
  A 9.67 9.28 96.8 0 0 70.8450 210.9280
  A 9.67 9.28 96.8 0 0 60.4853 219.4312
  A 9.67 9.28 96.8 0 0 68.5550 230.1320
  Z
  M 383.09 220.64
  A 9.40 9.40 0.0 0 0 373.69 211.24
  A 9.40 9.40 0.0 0 0 364.29 220.64
  A 9.40 9.40 0.0 0 0 373.69 230.04
  A 9.40 9.40 0.0 0 0 383.09 220.64
  Z
  M 284.08 284.89
  Q 288.86 275.62 287.60 266.20
  Q 286.79 260.18 282.37 252.48
  C 278.28 245.36 270.86 239.27 263.10 237.30
  Q 244.36 232.53 231.25 244.81
  C 223.89 251.71 219.48 262.90 220.52 273.31
  C 222.02 288.43 233.52 302.03 248.91 303.69
  Q 273.05 306.29 284.08 284.89
  Z
  M 433.48 295.61
  C 433.03 306.08 448.99 308.32 449.16 296.29
  Q 449.42 278.80 449.07 261.77
  C 448.80 247.99 438.08 238.11 424.98 236.30
  C 416.09 235.07 407.48 236.21 399.68 241.35
  C 395.38 244.18 396.58 250.68 400.52 253.00
  C 402.94 254.42 405.63 255.13 408.34 253.98
  C 418.03 249.90 428.26 251.09 431.78 262.41
  A 0.62 0.61 -0.5 0 1 431.02 263.18
  C 420.47 260.14 408.99 259.09 399.48 265.84
  Q 390.24 272.40 390.98 285.67
  Q 391.20 289.47 392.74 292.42
  Q 398.99 304.40 412.58 304.97
  C 420.43 305.29 427.47 301.87 431.94 295.11
  Q 433.62 292.56 433.48 295.61
  Z
  M 105.13 244.33
  Q 104.41 245.45 104.31 244.12
  C 103.89 238.30 99.14 235.43 93.74 236.57
  C 88.90 237.58 87.94 241.96 87.96 246.41
  Q 88.07 269.21 88.08 293.92
  C 88.08 300.06 92.52 305.67 99.17 303.80
  Q 104.61 302.26 104.87 296.70
  Q 105.47 283.77 105.17 270.71
  Q 105.06 265.71 106.04 262.77
  C 108.23 256.23 113.97 251.60 121.27 253.77
  C 127.44 255.60 129.04 261.78 128.98 267.77
  Q 128.84 282.50 129.09 296.06
  C 129.20 301.95 134.58 305.48 140.19 303.52
  C 144.44 302.03 145.81 298.37 145.82 294.16
  Q 145.85 279.20 145.99 264.46
  C 146.13 248.37 134.33 233.77 117.08 236.61
  C 112.27 237.41 107.85 240.15 105.13 244.33
  Z
  M 171.03 244.54
  C 170.54 233.90 155.21 233.13 154.99 244.94
  Q 154.58 267.31 155.05 295.39
  C 155.16 301.66 160.10 305.62 166.06 303.93
  C 171.33 302.43 172.40 298.25 172.35 292.93
  Q 172.25 282.84 172.24 271.22
  Q 172.24 263.77 173.57 261.27
  C 177.09 254.68 185.85 249.81 192.25 256.01
  Q 196.00 259.64 195.98 264.05
  Q 195.94 279.61 196.08 296.07
  C 196.12 301.70 200.57 304.93 205.85 303.89
  Q 212.98 302.48 212.95 294.10
  Q 212.89 279.39 213.05 265.14
  C 213.14 257.32 211.65 251.63 207.08 245.39
  Q 202.51 239.16 195.61 237.27
  Q 180.56 233.16 172.09 244.86
  Q 171.10 246.23 171.03 244.54
  Z
  M 322.84 278.20
  A 0.48 0.48 0.0 0 1 321.96 278.19
  Q 314.22 260.17 305.97 242.19
  Q 303.75 237.36 299.55 236.65
  Q 295.27 235.91 292.17 238.50
  Q 286.91 242.91 290.25 250.24
  Q 298.92 269.28 311.38 294.90
  Q 313.41 299.06 315.63 301.26
  C 322.45 308.04 329.62 303.47 333.08 296.29
  Q 343.93 273.70 354.76 250.09
  C 357.69 243.72 354.92 236.97 347.55 236.50
  C 342.69 236.19 339.81 239.30 337.98 243.45
  Q 330.32 260.90 322.84 278.20
  Z
  M 78.4842 245.1551
  A 8.38 8.38 0.0 0 0 70.1188 236.7605
  L 69.6388 236.7596
  A 8.38 8.38 0.0 0 0 61.2442 245.1250
  L 61.1558 295.7449
  A 8.38 8.38 0.0 0 0 69.5212 304.1395
  L 70.0012 304.1404
  A 8.38 8.38 0.0 0 0 78.3958 295.7750
  L 78.4842 245.1551
  Z
  M 382.5072 245.5710
  A 8.59 8.59 0.0 0 0 373.9472 236.9511
  L 373.4272 236.9493
  A 8.59 8.59 0.0 0 0 364.8073 245.5093
  L 364.6328 295.4890
  A 8.59 8.59 0.0 0 0 373.1928 304.1089
  L 373.7128 304.1107
  A 8.59 8.59 0.0 0 0 382.3327 295.5507
  L 382.5072 245.5710
  Z
  M 244.61 364.66
  Q 243.22 365.50 243.95 364.05
  Q 250.06 351.93 263.06 347.53
  C 266.51 346.36 270.79 346.53 274.51 346.59
  C 277.75 346.65 280.70 345.64 282.19 342.53
  C 285.37 335.90 280.63 330.18 273.68 329.52
  C 259.75 328.21 247.17 332.64 237.58 343.09
  Q 219.46 362.82 223.38 390.45
  C 225.61 406.15 237.01 419.39 253.05 421.44
  C 264.64 422.92 276.46 419.19 283.51 409.91
  Q 293.01 397.39 289.05 382.33
  Q 287.46 376.27 283.53 371.63
  C 273.56 359.85 258.11 356.53 244.61 364.66
  Z
  M 300.11 378.92
  C 300.57 396.73 307.64 413.52 325.05 419.52
  Q 334.87 422.90 345.01 420.83
  C 372.07 415.31 376.41 383.59 372.51 361.44
  Q 369.86 346.43 358.83 336.98
  Q 353.79 332.66 348.05 331.08
  C 338.61 328.48 329.78 328.50 321.07 333.15
  C 303.69 342.43 299.63 360.74 300.11 378.92
  Z
  M 203.91 371.07
  Q 214.11 361.33 209.18 347.91
  Q 205.59 338.15 196.20 333.31
  C 183.64 326.84 166.38 328.37 155.06 337.01
  Q 152.12 339.26 150.51 342.20
  C 148.23 346.34 149.30 351.28 153.55 353.66
  C 160.10 357.34 165.32 350.18 171.04 348.13
  Q 178.53 345.45 185.08 347.59
  C 190.49 349.35 194.63 354.76 191.60 360.45
  C 188.83 365.66 183.28 365.57 178.07 365.14
  Q 173.47 364.77 171.81 369.27
  C 170.14 373.78 170.93 378.82 175.51 381.28
  Q 177.36 382.28 179.67 382.08
  C 184.47 381.68 189.37 382.19 192.89 385.75
  C 195.78 388.66 196.35 392.22 195.22 396.00
  C 193.59 401.43 186.81 403.70 181.66 403.79
  Q 172.85 403.94 167.42 399.33
  C 162.98 395.55 159.62 390.18 152.78 393.07
  C 148.27 394.97 146.78 401.54 149.18 405.56
  Q 150.27 407.38 151.80 409.07
  Q 162.88 421.30 180.40 421.59
  Q 192.95 421.80 202.25 414.91
  C 215.07 405.41 217.55 387.69 207.65 375.50
  C 206.59 374.19 205.20 373.02 203.94 371.93
  Q 203.45 371.51 203.91 371.07
  Z"
/>
<path fill="#42c059" d="
  M 266.75 135.15
  Q 266.86 164.85 266.89 193.03
  C 266.89 199.06 265.02 204.24 258.79 205.90
  Q 252.67 207.53 247.87 203.71
  C 243.50 200.24 243.80 196.50 243.77 190.40
  Q 243.62 162.32 244.23 134.31
  Q 244.24 133.85 243.92 134.18
  Q 231.80 146.80 219.28 159.15
  C 204.87 173.35 191.04 188.07 176.85 202.58
  C 171.66 207.90 162.45 207.71 158.30 201.36
  C 153.84 194.54 157.02 188.97 161.94 183.74
  Q 169.44 175.78 177.75 167.35
  Q 208.64 136.01 241.62 102.22
  C 244.08 99.70 243.87 94.59 243.86 90.96
  Q 243.75 51.01 243.75 15.40
  C 243.76 2.74 261.54 -0.61 266.01 11.15
  Q 266.92 13.54 266.91 17.75
  Q 266.86 73.41 266.71 96.50
  Q 266.69 100.39 269.25 103.04
  C 277.93 112.05 286.44 121.00 295.30 129.82
  Q 321.56 155.94 350.67 185.32
  Q 355.83 190.53 354.70 196.91
  C 353.30 204.81 345.18 208.10 338.21 205.24
  C 335.25 204.03 332.87 201.08 330.62 198.77
  Q 301.11 168.42 273.76 141.76
  C 271.51 139.57 269.49 137.19 267.40 134.89
  Q 266.74 134.17 266.75 135.15
  Z"
/>
<path fill="#1d91f1" d="
  M 445.37 93.61
  Q 444.70 93.33 444.20 93.65
  A 0.87 0.86 69.5 0 0 443.82 94.50
  C 444.73 100.82 442.47 106.52 435.69 107.90
  Q 430.09 109.04 424.38 106.53
  Q 414.42 95.54 399.78 83.47
  Q 378.59 65.99 358.95 56.03
  Q 335.41 44.10 311.15 37.75
  C 305.48 36.27 300.78 35.47 297.39 30.20
  C 294.36 25.48 296.14 18.88 300.38 15.61
  Q 305.40 11.74 311.03 13.12
  Q 334.54 18.90 357.13 28.61
  Q 366.40 32.60 375.04 37.32
  Q 412.13 57.54 441.18 88.58
  Q 442.80 90.31 445.37 93.61
  Z"
/>
<path fill="#1d91f1" d="
  M 86.15 108.04
  Q 85.46 106.96 83.28 107.74
  Q 81.77 108.29 80.63 108.32
  C 78.83 108.37 76.78 108.76 75.12 108.18
  Q 71.06 106.75 68.94 103.02
  Q 67.87 101.15 67.69 97.97
  Q 67.54 95.48 67.44 92.69
  Q 71.00 88.35 76.63 82.62
  Q 88.32 70.74 98.86 62.25
  Q 112.49 51.28 130.28 40.81
  Q 139.04 35.65 148.29 31.41
  Q 171.15 20.93 196.21 14.06
  Q 200.09 12.99 203.78 13.16
  C 211.98 13.53 217.84 23.15 213.35 30.44
  C 210.34 35.33 205.83 36.80 200.33 37.99
  C 184.62 41.38 168.64 48.08 153.87 55.33
  Q 135.90 64.14 117.92 78.43
  Q 102.35 90.81 86.15 108.04
  Z"
/>
<path fill="#325366" d="
  M 67.44 92.69
  Q 67.54 95.48 67.69 97.97
  Q 67.87 101.15 68.94 103.02
  Q 71.06 106.75 75.12 108.18
  C 76.78 108.76 78.83 108.37 80.63 108.32
  Q 81.77 108.29 83.28 107.74
  Q 85.46 106.96 86.15 108.04
  C 62.98 133.88 45.93 164.19 36.10 197.16
  C 24.98 234.42 23.27 274.71 32.99 312.34
  Q 38.40 333.31 46.89 352.13
  Q 56.02 372.38 70.88 393.24
  Q 86.86 415.65 107.94 432.81
  Q 149.23 466.41 200.57 479.83
  Q 207.08 481.53 214.15 482.80
  Q 221.34 484.10 228.18 485.06
  Q 253.42 488.62 277.06 486.20
  Q 311.20 482.70 344.18 468.94
  Q 353.31 465.13 362.21 460.30
  Q 419.48 429.17 452.45 375.00
  Q 465.15 354.12 474.39 326.66
  Q 477.57 317.19 479.67 307.25
  Q 487.96 267.95 482.90 230.52
  Q 479.90 208.35 471.34 184.03
  Q 462.47 158.86 446.96 136.01
  Q 435.45 119.07 429.20 112.29
  Q 425.87 108.67 424.38 106.53
  Q 430.09 109.04 435.69 107.90
  C 442.47 106.52 444.73 100.82 443.82 94.50
  A 0.87 0.86 69.5 0 1 444.20 93.65
  Q 444.70 93.33 445.37 93.61
  Q 460.34 110.41 471.85 129.82
  Q 476.03 136.87 479.43 143.16
  C 487.42 157.93 493.26 174.33 498.41 190.14
  Q 499.66 194.01 500.44 197.77
  C 501.12 201.02 502.40 204.21 503.05 207.47
  Q 508.06 232.54 508.55 256.50
  Q 509.03 279.87 504.46 304.53
  Q 502.72 313.92 499.66 324.90
  Q 497.05 334.25 493.43 344.21
  Q 489.48 355.08 485.64 363.26
  Q 468.33 400.16 442.50 428.50
  Q 432.86 439.09 420.15 449.99
  Q 404.25 463.63 387.43 473.63
  C 384.71 475.25 381.92 476.54 379.19 478.17
  Q 369.27 484.09 362.12 487.14
  Q 340.98 496.17 332.84 498.59
  Q 325.55 500.75 318.26 502.72
  Q 303.36 506.76 288.00 508.00
  L 220.40 508.00
  L 209.79 506.40
  Q 207.37 506.03 204.97 505.52
  Q 177.28 499.62 152.21 488.39
  Q 127.23 477.20 102.52 459.17
  Q 100.28 457.53 98.12 455.59
  C 96.49 454.11 94.68 452.96 92.95 451.54
  Q 74.82 436.51 60.00 418.23
  Q 58.54 416.43 57.33 414.55
  C 56.21 412.81 54.83 411.41 53.59 409.76
  Q 33.09 382.44 20.12 350.07
  C 17.87 344.45 16.15 338.38 14.15 332.47
  Q 13.07 329.27 12.15 325.88
  Q 6.77 306.09 4.54 286.93
  Q 2.22 266.88 3.71 245.60
  Q 5.34 222.40 10.38 201.64
  Q 12.55 192.73 16.03 181.75
  Q 18.99 172.41 23.05 163.04
  Q 29.31 148.59 35.22 138.00
  Q 37.79 133.39 46.81 119.02
  Q 54.85 106.21 67.44 92.69
  Z"
/>
<ellipse fill="#325366" cx="0.00" cy="0.00" transform="translate(69.70,220.53) rotate(96.8)" rx="9.67" ry="9.28"/>
<circle fill="#325366" cx="373.69" cy="220.64" r="9.40"/>
<path fill="#325366" d="
  M 284.08 284.89
  Q 273.05 306.29 248.91 303.69
  C 233.52 302.03 222.02 288.43 220.52 273.31
  C 219.48 262.90 223.89 251.71 231.25 244.81
  Q 244.36 232.53 263.10 237.30
  C 270.86 239.27 278.28 245.36 282.37 252.48
  Q 286.79 260.18 287.60 266.20
  Q 288.86 275.62 284.08 284.89
  Z
  M 254.5226 287.0497
  A 16.98 16.55 88.0 0 0 270.4699 269.5024
  A 16.98 16.55 88.0 0 0 253.3374 253.1103
  A 16.98 16.55 88.0 0 0 237.3901 270.6576
  A 16.98 16.55 88.0 0 0 254.5226 287.0497
  Z"
/>
<path fill="#325366" d="
  M 433.48 295.61
  Q 433.62 292.56 431.94 295.11
  C 427.47 301.87 420.43 305.29 412.58 304.97
  Q 398.99 304.40 392.74 292.42
  Q 391.20 289.47 390.98 285.67
  Q 390.24 272.40 399.48 265.84
  C 408.99 259.09 420.47 260.14 431.02 263.18
  A 0.62 0.61 -0.5 0 0 431.78 262.41
  C 428.26 251.09 418.03 249.90 408.34 253.98
  C 405.63 255.13 402.94 254.42 400.52 253.00
  C 396.58 250.68 395.38 244.18 399.68 241.35
  C 407.48 236.21 416.09 235.07 424.98 236.30
  C 438.08 238.11 448.80 247.99 449.07 261.77
  Q 449.42 278.80 449.16 296.29
  C 448.99 308.32 433.03 306.08 433.48 295.61
  Z
  M 420.51 275.17
  C 415.09 274.29 408.50 276.28 408.26 282.86
  C 408.03 289.36 416.11 291.83 420.94 289.67
  Q 428.87 286.13 431.88 277.57
  A 0.52 0.52 0.0 0 0 431.47 276.88
  Q 426.00 276.05 420.51 275.17
  Z"
/>
<path fill="#325366" d="
  M 105.13 244.33
  C 107.85 240.15 112.27 237.41 117.08 236.61
  C 134.33 233.77 146.13 248.37 145.99 264.46
  Q 145.85 279.20 145.82 294.16
  C 145.81 298.37 144.44 302.03 140.19 303.52
  C 134.58 305.48 129.20 301.95 129.09 296.06
  Q 128.84 282.50 128.98 267.77
  C 129.04 261.78 127.44 255.60 121.27 253.77
  C 113.97 251.60 108.23 256.23 106.04 262.77
  Q 105.06 265.71 105.17 270.71
  Q 105.47 283.77 104.87 296.70
  Q 104.61 302.26 99.17 303.80
  C 92.52 305.67 88.08 300.06 88.08 293.92
  Q 88.07 269.21 87.96 246.41
  C 87.94 241.96 88.90 237.58 93.74 236.57
  C 99.14 235.43 103.89 238.30 104.31 244.12
  Q 104.41 245.45 105.13 244.33
  Z"
/>
<path fill="#325366" d="
  M 171.03 244.54
  Q 171.10 246.23 172.09 244.86
  Q 180.56 233.16 195.61 237.27
  Q 202.51 239.16 207.08 245.39
  C 211.65 251.63 213.14 257.32 213.05 265.14
  Q 212.89 279.39 212.95 294.10
  Q 212.98 302.48 205.85 303.89
  C 200.57 304.93 196.12 301.70 196.08 296.07
  Q 195.94 279.61 195.98 264.05
  Q 196.00 259.64 192.25 256.01
  C 185.85 249.81 177.09 254.68 173.57 261.27
  Q 172.24 263.77 172.24 271.22
  Q 172.25 282.84 172.35 292.93
  C 172.40 298.25 171.33 302.43 166.06 303.93
  C 160.10 305.62 155.16 301.66 155.05 295.39
  Q 154.58 267.31 154.99 244.94
  C 155.21 233.13 170.54 233.90 171.03 244.54
  Z"
/>
<path fill="#325366" d="
  M 322.84 278.20
  Q 330.32 260.90 337.98 243.45
  C 339.81 239.30 342.69 236.19 347.55 236.50
  C 354.92 236.97 357.69 243.72 354.76 250.09
  Q 343.93 273.70 333.08 296.29
  C 329.62 303.47 322.45 308.04 315.63 301.26
  Q 313.41 299.06 311.38 294.90
  Q 298.92 269.28 290.25 250.24
  Q 286.91 242.91 292.17 238.50
  Q 295.27 235.91 299.55 236.65
  Q 303.75 237.36 305.97 242.19
  Q 314.22 260.17 321.96 278.19
  A 0.48 0.48 0.0 0 0 322.84 278.20
  Z"
/>
<rect fill="#325366" x="-8.62" y="-33.69" transform="translate(69.82,270.45) rotate(0.1)" width="17.24" height="67.38" rx="8.38"/>
<rect fill="#325366" x="-8.85" y="-33.58" transform="translate(373.57,270.53) rotate(0.2)" width="17.70" height="67.16" rx="8.59"/>
<path fill="#325366" d="
  M 509.12 249.46
  Q 510.46 250.54 509.55 252.83
  Q 509.05 251.45 509.12 249.46
  Z"
/>
<ellipse fill="#ffffff" cx="0.00" cy="0.00" transform="translate(253.93,270.08) rotate(88.0)" rx="16.98" ry="16.55"/>
<path fill="#ffffff" d="
  M 408.26 282.86
  C 408.50 276.28 415.09 274.29 420.51 275.17
  Q 426.00 276.05 431.47 276.88
  A 0.52 0.52 0.0 0 1 431.88 277.57
  Q 428.87 286.13 420.94 289.67
  C 416.11 291.83 408.03 289.36 408.26 282.86
  Z"
/>
<path fill="#325366" d="
  M 244.61 364.66
  C 258.11 356.53 273.56 359.85 283.53 371.63
  Q 287.46 376.27 289.05 382.33
  Q 293.01 397.39 283.51 409.91
  C 276.46 419.19 264.64 422.92 253.05 421.44
  C 237.01 419.39 225.61 406.15 223.38 390.45
  Q 219.46 362.82 237.58 343.09
  C 247.17 332.64 259.75 328.21 273.68 329.52
  C 280.63 330.18 285.37 335.90 282.19 342.53
  C 280.70 345.64 277.75 346.65 274.51 346.59
  C 270.79 346.53 266.51 346.36 263.06 347.53
  Q 250.06 351.93 243.95 364.05
  Q 243.22 365.50 244.61 364.66
  Z
  M 272.2465 388.9138
  A 14.38 13.43 -8.1 0 0 256.1177 377.6440
  A 14.38 13.43 -8.1 0 0 243.7735 392.9662
  A 14.38 13.43 -8.1 0 0 259.9023 404.2360
  A 14.38 13.43 -8.1 0 0 272.2465 388.9138
  Z"
/>
<path fill="#325366" d="
  M 325.05 419.52
  C 307.64 413.52 300.57 396.73 300.11 378.92
  C 299.63 360.74 303.69 342.43 321.07 333.15
  C 329.78 328.50 338.61 328.48 348.05 331.08
  Q 353.79 332.66 358.83 336.98
  Q 369.86 346.43 372.51 361.44
  C 376.41 383.59 372.07 415.31 345.01 420.83
  Q 334.87 422.90 325.05 419.52
  Z
  M 327.10 350.46
  C 319.61 356.74 319.08 365.80 319.20 374.78
  C 319.30 383.23 319.23 389.86 323.43 396.24
  C 328.37 403.75 337.77 406.02 345.48 401.33
  C 351.59 397.60 354.27 390.51 354.46 383.74
  Q 354.69 375.70 354.44 367.79
  C 354.07 356.67 346.62 345.32 334.40 347.19
  Q 330.26 347.82 327.10 350.46
  Z"
/>
<path fill="#325366" d="
  M 203.94 371.93
  C 205.20 373.02 206.59 374.19 207.65 375.50
  C 217.55 387.69 215.07 405.41 202.25 414.91
  Q 192.95 421.80 180.40 421.59
  Q 162.88 421.30 151.80 409.07
  Q 150.27 407.38 149.18 405.56
  C 146.78 401.54 148.27 394.97 152.78 393.07
  C 159.62 390.18 162.98 395.55 167.42 399.33
  Q 172.85 403.94 181.66 403.79
  C 186.81 403.70 193.59 401.43 195.22 396.00
  C 196.35 392.22 195.78 388.66 192.89 385.75
  C 189.37 382.19 184.47 381.68 179.67 382.08
  Q 177.36 382.28 175.51 381.28
  C 170.93 378.82 170.14 373.78 171.81 369.27
  Q 173.47 364.77 178.07 365.14
  C 183.28 365.57 188.83 365.66 191.60 360.45
  C 194.63 354.76 190.49 349.35 185.08 347.59
  Q 178.53 345.45 171.04 348.13
  C 165.32 350.18 160.10 357.34 153.55 353.66
  C 149.30 351.28 148.23 346.34 150.51 342.20
  Q 152.12 339.26 155.06 337.01
  C 166.38 328.37 183.64 326.84 196.20 333.31
  Q 205.59 338.15 209.18 347.91
  Q 214.11 361.33 203.91 371.07
  Q 203.45 371.51 203.94 371.93
  Z"
/>
<path fill="#000000" d="
  M 13.23 334.40
  Q 15.93 338.27 16.28 342.97
  L 13.23 334.40
  Z"
/>
<path fill="#ffffff" d="
  M 319.20 374.78
  C 319.08 365.80 319.61 356.74 327.10 350.46
  Q 330.26 347.82 334.40 347.19
  C 346.62 345.32 354.07 356.67 354.44 367.79
  Q 354.69 375.70 354.46 383.74
  C 354.27 390.51 351.59 397.60 345.48 401.33
  C 337.77 406.02 328.37 403.75 323.43 396.24
  C 319.23 389.86 319.30 383.23 319.20 374.78
  Z"
/>
<ellipse fill="#ffffff" cx="0.00" cy="0.00" transform="translate(258.01,390.94) rotate(-8.1)" rx="14.38" ry="13.43"/>
</svg>
